PathFileType   4   (X/Y/Z)
DataRate	CameraRate	NumFrames	NumMarkers	Units	OrigDataRate	OrigDataStartFrame	OrigNumFrames
120.0	120.0	7	37	mm	120.0	122	194
Frame#	Time	midhip	hip_r	hip_l	knee_r	knee_l	ankle_r	ankle_l	midasis	asis_r	asis_l	psis_r	psis_l	epicondLat_r	epicondLat_l	epicondMed_r	epicondMed_l	malleolusLat_r	malleolusLat_l	malleolusMedv_r	malleolusMedv_l	neck	subclavicle_r	subclavicle_l	sternalnotch	xyphoidprocess	thighwand_r	thighwand_l	upperleg1_r	upperleg1_l	upperleg2_r	upperleg2_l	shankwand_r	shankwand_l	lowerleg1_r	lowerleg1_l	toe_r	toe_l
 	 	X1	Y1	Z1	X2	Y2	Z2	X3	Y3	Z3	X4	Y4	Z4	X5	Y5	Z5	X6	Y6	Z6	X7	Y7	Z7	X8	Y8	Z8	X9	Y9	Z9	X10	Y10	Z10	X11	Y11	Z11	X12	Y12	Z12	X13	Y13	Z13	X14	Y14	Z14	X15	Y15	Z15	X16	Y16	Z16	X17	Y17	Z17	X18	Y18	Z18	X19	Y19	Z19	X20	Y20	Z20	X21	Y21	Z21	X22	Y22	Z22	X23	Y23	Z23	X24	Y24	Z24	X25	Y25	Z25	X26	Y26	Z26	X27	Y27	Z27	X28	Y28	Z28	X29	Y29	Z29	X30	Y30	Z30	X31	Y31	Z31	X32	Y32	Z32	X33	Y33	Z33	X34	Y34	Z34	X35	Y35	Z35	X36	Y36	Z36	X37	Y37	Z37

	122	1.35833	1266.774	686.398	-236.505	1256.752	691.824	-170.968	1261.254	694.449	-296.689	1272.441	373.073	-164.135	1289.011	384.353	-263.440	1033.335	160.359	-167.307	1307.973	61.303	-252.639	1322.917	758.337	-230.178	1319.478	756.332	-134.155	1326.355	760.343	-326.201	1176.522	792.348	-213.243	1175.918	789.463	-267.962	1271.179	374.093	-113.661	1288.418	378.970	-313.146	1285.809	355.751	-208.319	1285.015	385.518	-208.069	1028.118	165.737	-134.656	1304.844	59.971	-286.971	1041.651	164.469	-193.496	1301.772	64.784	-224.440	1224.579	1145.627	-241.100	1296.101	1090.139	-178.722	1293.549	1091.468	-309.060	1289.761	1080.740	-246.221	1287.027	936.281	-247.139	1265.916	460.534	-38.328	1410.594	489.541	-308.367	1303.165	519.253	-104.928	1339.908	548.268	-259.714	1318.611	436.998	-113.234	1331.756	462.293	-243.055	1091.857	245.463	-61.412	1388.356	164.761	-288.720	1144.458	270.142	-119.647	1323.439	217.028	-275.176	1058.712	65.361	-158.147	1400.486	40.752	-256.266
	123	1.36667	1270.697	686.544	-236.802	1260.780	691.936	-171.400	1265.207	694.528	-297.124	1281.266	373.367	-164.756	1291.194	384.412	-263.525	1043.263	160.029	-167.123	1308.178	61.288	-252.510	1326.785	758.556	-230.669	1323.404	756.577	-134.659	1330.165	760.536	-326.679	1180.044	792.322	-213.327	1179.701	789.404	-268.070	1280.306	374.358	-114.275	1290.289	378.952	-313.217	1294.889	356.277	-208.897	1287.479	385.808	-208.002	1037.935	165.611	-134.524	1304.963	59.949	-286.834	1051.882	163.333	-193.224	1301.916	64.829	-224.290	1228.426	1145.766	-241.177	1305.745	1091.327	-178.979	1297.400	1091.767	-309.000	1293.876	1080.959	-246.192	1297.548	936.860	-246.083	1274.241	460.431	-38.636	1413.149	488.789	-309.301	1310.230	519.842	-105.345	1343.250	548.047	-260.409	1326.903	437.923	-113.853	1334.555	462.116	-243.484	1101.062	245.920	-61.806	1389.058	164.163	-288.829	1153.744	270.360	-120.000	1324.285	216.892	-275.275	1072.654	66.492	-155.264	1400.606	40.673	-256.350
	124	1.37500	1274.529	686.722	-237.071	1264.730	692.119	-171.791	1269.049	694.602	-297.521	1289.984	373.758	-165.353	1293.348	384.463	-263.571	1053.672	159.172	-166.813	1308.381	61.273	-252.374	1330.582	758.787	-231.177	1327.285	756.892	-135.194	1333.879	760.682	-327.160	1183.570	792.366	-213.468	1183.449	789.377	-268.242	1289.402	374.733	-114.866	1292.156	378.931	-313.249	1303.417	356.893	-209.381	1289.576	386.045	-208.230	1048.227	164.947	-134.267	1305.086	59.931	-286.690	1062.289	162.095	-193.090	1302.026	64.872	-224.143	1232.274	1145.980	-241.206	1308.951	1091.633	-178.895	1301.289	1092.131	-309.008	1297.974	1081.229	-246.134	1300.968	937.200	-246.127	1282.673	460.488	-38.893	1415.694	488.057	-310.137	1317.244	520.600	-105.830	1346.419	547.876	-261.016	1335.034	438.926	-114.541	1337.094	461.870	-243.959	1110.566	246.040	-62.080	1389.754	163.571	-288.908	1163.250	270.288	-120.257	1325.149	216.754	-275.357	1086.879	67.306	-152.610	1400.728	40.598	-256.428
	125	1.38333	1278.248	686.911	-237.294	1268.595	692.362	-172.130	1272.770	694.662	-297.869	1298.591	374.236	-165.908	1295.488	384.501	-263.579	1064.541	157.817	-166.394	1308.582	61.253	-252.231	1334.302	759.017	-231.689	1331.117	757.262	-135.747	1337.488	760.772	-327.630	1187.104	792.466	-213.665	1187.161	789.380	-268.475	1298.459	375.211	-115.417	1294.052	378.905	-313.244	1311.761	357.547	-209.717	1291.671	386.267	-208.312	1058.987	163.750	-133.895	1305.221	59.912	-286.541	1073.229	160.489	-192.816	1302.093	64.915	-223.990	1236.176	1146.203	-241.190	1312.564	1091.963	-178.726	1305.444	1092.554	-309.102	1302.057	1081.518	-246.052	1305.054	937.573	-246.226	1291.188	460.699	-39.099	1418.247	487.357	-310.833	1324.307	521.412	-106.254	1349.408	547.654	-261.456	1343.130	439.991	-115.151	1339.569	461.748	-244.287	1120.399	245.768	-62.214	1390.463	162.976	-288.934	1173.092	269.967	-120.409	1326.150	216.625	-275.329	1101.344	67.773	-150.217	1400.857	40.523	-256.493
	126	1.39167	1281.864	687.093	-237.471	1272.372	692.648	-172.416	1276.376	694.703	-298.164	1307.090	374.794	-166.404	1297.626	384.522	-263.553	1075.844	156.005	-165.886	1308.778	61.222	-252.084	1337.948	759.237	-232.194	1334.894	757.670	-136.307	1341.001	760.804	-328.082	1190.643	792.606	-213.914	1190.839	789.408	-268.762	1307.462	375.790	-115.915	1295.997	378.870	-313.206	1320.363	358.208	-209.908	1294.754	386.370	-207.777	1070.202	162.045	-133.422	1305.376	59.888	-286.389	1084.608	158.427	-192.274	1302.014	64.970	-223.989	1240.024	1146.408	-241.222	1316.739	1092.284	-178.568	1309.626	1092.914	-308.971	1306.205	1081.792	-245.943	1309.741	937.903	-246.156	1299.750	461.052	-39.257	1420.817	486.699	-311.365	1331.438	522.270	-106.592	1352.339	547.327	-261.683	1351.346	441.126	-115.629	1342.543	461.897	-244.307	1130.576	245.067	-62.201	1391.197	162.370	-288.891	1183.096	269.482	-120.457	1327.285	216.429	-275.095	1116.041	67.885	-148.092	1401.000	40.446	-256.544
	127	1.40000	1285.407	687.258	-237.618	1276.069	692.963	-172.655	1279.891	694.723	-298.414	1315.485	375.428	-166.830	1299.764	384.524	-263.500	1087.545	153.784	-165.306	1308.969	61.179	-251.935	1341.528	759.440	-232.685	1338.615	758.099	-136.860	1344.440	760.781	-328.509	1194.184	792.767	-214.208	1194.486	789.456	-269.092	1316.396	376.467	-116.349	1298.000	378.823	-313.143	1328.936	358.880	-210.017	1299.026	385.973	-207.212	1081.846	159.868	-132.859	1305.551	59.854	-286.240	1096.356	156.001	-191.657	1302.022	64.925	-224.065	1243.833	1146.614	-241.236	1321.344	1092.541	-178.491	1313.642	1093.184	-308.678	1310.035	1081.995	-245.834	1314.604	938.156	-246.005	1308.310	461.533	-39.376	1423.405	486.083	-311.721	1338.491	523.210	-106.951	1355.214	547.018	-261.805	1359.538	442.334	-116.102	1346.092	461.874	-244.281	1141.099	243.926	-62.038	1391.961	161.749	-288.778	1193.248	268.844	-120.450	1328.542	216.170	-274.795	1130.985	67.657	-146.219	1401.158	40.366	-256.580
	128	1.40833	1288.911	687.404	-237.749	1279.696	693.293	-172.860	1283.348	694.723	-298.628	1323.784	376.136	-167.182	1301.900	384.509	-263.428	1099.613	151.199	-164.665	1309.157	61.124	-251.789	1345.057	759.629	-233.153	1342.277	758.540	-137.396	1347.838	760.717	-328.911	1197.720	792.935	-214.542	1198.104	789.517	-269.451	1325.240	377.241	-116.715	1300.057	378.766	-313.063	1337.361	359.712	-210.211	1304.641	384.825	-206.813	1093.892	157.264	-132.219	1305.747	59.813	-286.095	1108.587	153.250	-191.011	1302.423	64.683	-223.871	1247.629	1146.801	-241.153	1324.049	1092.266	-178.325	1317.700	1093.469	-308.436	1313.874	1082.159	-245.697	1317.330	938.186	-246.464	1316.813	462.129	-39.463	1426.007	485.506	-311.911	1345.587	524.258	-107.332	1357.892	546.605	-261.775	1367.682	443.625	-116.637	1350.224	461.567	-244.294	1151.947	242.361	-61.733	1392.750	161.112	-288.603	1203.722	267.866	-120.169	1329.791	215.920	-274.536	1146.195	67.119	-144.566	1401.334	40.282	-256.603
